<svg id="Capa_1" enable-background="new 0 0 502 502" height="512" viewBox="0 0 502 502" width="512" xmlns="http://www.w3.org/2000/svg"><circle cx="245.697" cy="257" fill="#c0e0ff" r="245"/><path d="m467.803 451c-14.888 0-27-12.112-27-27v-198c0-4.411-3.589-8-8-8h-8c-4.971 0-9-4.029-9-9s4.029-9 9-9h8c14.336 0 26 11.664 26 26v198c0 4.962 4.038 9 9 9s9-4.038 9-9v-353.164c0-3.616-1.408-7.016-3.965-9.574l-31.148-31.148c-3.515-3.515-3.515-9.213 0-12.728s9.213-3.515 12.728 0l31.148 31.148c5.957 5.957 9.238 13.877 9.238 22.301v353.165c-.001 14.888-12.113 27-27.001 27z" fill="#5e5e5e"/><path d="m476.803 175.667h18v35.333h-18z" fill="#333"/><path d="m413.303 245h-21.5v-72h21.5c6.351 0 11.5 5.149 11.5 11.5v49c0 6.351-5.149 11.5-11.5 11.5z" fill="#b2193a"/><path d="m413.303 217h-21.5v28h21.5c6.351 0 11.5-5.149 11.5-11.5v-28c0 6.351-5.149 11.5-11.5 11.5z" fill="#9b1034"/><path d="m399.803 433h-306v-407.5c0-14.083 11.417-25.5 25.5-25.5h255c14.083 0 25.5 11.417 25.5 25.5z" fill="#ff3972"/><path d="m374.303 0h-18c14.083 0 25.5 11.417 25.5 25.5v407.5h18v-407.5c0-14.083-11.417-25.5-25.5-25.5z" fill="#ff6c9d"/><path d="m170.803 365c-11.598 0-21-9.402-21-21v-318.5c0-14.083 11.417-25.5 25.5-25.5h-56c-14.083 0-25.5 11.417-25.5 25.5v339.5 68h56 250v-68z" fill="#cc175d"/><path d="m357.803 139h-222c-9.941 0-18-8.059-18-18v-46c0-9.941 8.059-18 18-18h222c9.941 0 18 8.059 18 18v46c0 9.941-8.059 18-18 18z" fill="#fff"/><path d="m135.803 57c-9.941 0-18 8.059-18 18v46c0 9.941 8.059 18 18 18h14v-82z" fill="#cecece"/><path d="m245.697 502c70.697 0 134.388-29.956 179.106-77.853v-19.147c0-12.703-10.297-23-23-23h-310c-12.703 0-23 10.297-23 23v21.5c44.594 46.527 107.359 75.5 176.894 75.5z" fill="#b2193a"/><path d="m152.803 382h-61c-12.703 0-23 10.297-23 23v21.5c17.704 18.472 38.281 34.163 61 46.387v-67.887c0-12.703 10.297-23 23-23z" fill="#960e31"/><path d="m491.553 192.5h-11c-5.385 0-9.75-4.365-9.75-9.75v-87c0-5.385 4.365-9.75 9.75-9.75h11c5.385 0 9.75 4.365 9.75 9.75v87c0 5.385-4.365 9.75-9.75 9.75z" fill="#ff3972"/><g fill="#cc175d"><path d="m485.803 182.75v-87c0-4.699 3.325-8.62 7.75-9.543-.646-.135-1.314-.207-2-.207h-11c-5.385 0-9.75 4.365-9.75 9.75v87c0 5.385 4.365 9.75 9.75 9.75h11c.686 0 1.354-.072 2-.207-4.425-.923-7.75-4.844-7.75-9.543z"/><path d="m315.303 209h-137c-3.038 0-5.5-2.462-5.5-5.5 0-3.038 2.462-5.5 5.5-5.5h137c3.038 0 5.5 2.462 5.5 5.5 0 3.038-2.462 5.5-5.5 5.5z"/><path d="m315.303 239h-137c-3.038 0-5.5-2.462-5.5-5.5 0-3.038 2.462-5.5 5.5-5.5h137c3.038 0 5.5 2.462 5.5 5.5 0 3.038-2.462 5.5-5.5 5.5z"/><path d="m315.303 269h-137c-3.038 0-5.5-2.462-5.5-5.5 0-3.038 2.462-5.5 5.5-5.5h137c3.038 0 5.5 2.462 5.5 5.5 0 3.038-2.462 5.5-5.5 5.5z"/></g></svg>